{
    "asset" : {
        "generator" : "Khronos glTF Blender I/O v1.6.16",
        "version" : "2.0"
    },
    "scene" : 0,
    "scenes" : [
        {
            "name" : "Scene",
            "nodes" : [
                9
            ]
        }
    ],
    "nodes" : [
        {
            "name" : "Bone.007",
            "rotation" : [
                0.025169599801301956,
                4.619991116560328e-14,
                2.2003814326154725e-09,
                0.9996832013130188
            ],
            "translation" : [
                3.552713678800501e-15,
                0.008797232061624527,
                2.5613957658485818e-22
            ]
        },
        {
            "children" : [
                0
            ],
            "name" : "Bone.006",
            "rotation" : [
                -4.976989841573147e-22,
                -2.8421707736338113e-14,
                0,
                1
            ],
            "translation" : [
                0,
                0.00883355364203453,
                5.836184827797195e-23
            ]
        },
        {
            "children" : [
                1
            ],
            "name" : "Bone.005",
            "rotation" : [
                -3.1336117880469726e-21,
                4.263256414560601e-14,
                4.263256414560601e-14,
                1
            ],
            "translation" : [
                0,
                0.008750993758440018,
                7.237889682179065e-23
            ]
        },
        {
            "children" : [
                2
            ],
            "name" : "Bone.004",
            "rotation" : [
                5.186843705052646e-21,
                -5.684341886080802e-14,
                -4.263256414560601e-14,
                1
            ],
            "translation" : [
                0,
                0.009081218391656876,
                7.877102411502202e-23
            ]
        },
        {
            "children" : [
                3
            ],
            "name" : "Bone.003",
            "rotation" : [
                -3.0413563100951264e-21,
                2.8421707736338113e-14,
                2.842170943040401e-14,
                1
            ],
            "translation" : [
                -4.440892098500626e-16,
                0.00899866409599781,
                -1.3234889800848443e-23
            ]
        },
        {
            "children" : [
                4
            ],
            "name" : "Bone.002",
            "rotation" : [
                1.5824137784014354e-21,
                -1.4210854715202004e-14,
                -7.861284384862224e-42,
                1
            ],
            "translation" : [
                -2.220446049250313e-16,
                0.008599642664194107,
                -2.6469779601696886e-23
            ]
        },
        {
            "children" : [
                5
            ],
            "name" : "Bone.001",
            "rotation" : [
                -7.121493031511574e-15,
                4.371140960302e-08,
                1.6292068494294654e-07,
                1
            ],
            "translation" : [
                0,
                0.007276198361068964,
                0
            ]
        },
        {
            "children" : [
                6
            ],
            "name" : "Bone"
        },
        {
            "mesh" : 0,
            "name" : "earring",
            "skin" : 0
        },
        {
            "children" : [
                8,
                7
            ],
            "name" : "Armature",
            "rotation" : [
                0,
                0,
                -1,
                -1.6292068494294654e-07
            ],
            "translation" : [
                0.0749940574169159,
                -0.0061628129333257675,
                -0.12921205163002014
            ]
        }
    ],
    "materials" : [
        {
            "doubleSided" : true,
            "name" : "blueDiamondMat",
            "pbrMetallicRoughness" : {
                "baseColorFactor" : [
                    0.01920299232006073,
                    0.020178452134132385,
                    0.8000000715255737,
                    1
                ],
                "metallicFactor" : 0.8181818127632141,
                "roughnessFactor" : 0.09421488642692566
            }
        },
        {
            "doubleSided" : true,
            "name" : "whiteDiamondMat",
            "pbrMetallicRoughness" : {
                "baseColorFactor" : [
                    0.6717384457588196,
                    0.7535388469696045,
                    0.8000000715255737,
                    1
                ],
                "metallicFactor" : 0.8595041036605835,
                "roughnessFactor" : 0.5
            }
        }
    ],
    "meshes" : [
        {
            "name" : "Cube",
            "primitives" : [
                {
                    "attributes" : {
                        "POSITION" : 0,
                        "NORMAL" : 1,
                        "TEXCOORD_0" : 2,
                        "JOINTS_0" : 3,
                        "WEIGHTS_0" : 4
                    },
                    "indices" : 5,
                    "material" : 0
                },
                {
                    "attributes" : {
                        "POSITION" : 6,
                        "NORMAL" : 7,
                        "TEXCOORD_0" : 8,
                        "JOINTS_0" : 9,
                        "WEIGHTS_0" : 10
                    },
                    "indices" : 11,
                    "material" : 1
                }
            ]
        }
    ],
    "skins" : [
        {
            "inverseBindMatrices" : 12,
            "joints" : [
                7,
                6,
                5,
                4,
                3,
                2,
                1,
                0
            ],
            "name" : "Armature"
        }
    ],
    "accessors" : [
        {
            "bufferView" : 0,
            "componentType" : 5126,
            "count" : 480,
            "max" : [
                0.08837727457284927,
                -0.005318927112966776,
                -0.1229536160826683
            ],
            "min" : [
                0.0603213757276535,
                -0.11361691355705261,
                -0.1324985772371292
            ],
            "type" : "VEC3"
        },
        {
            "bufferView" : 1,
            "componentType" : 5126,
            "count" : 480,
            "type" : "VEC3"
        },
        {
            "bufferView" : 2,
            "componentType" : 5126,
            "count" : 480,
            "type" : "VEC2"
        },
        {
            "bufferView" : 3,
            "componentType" : 5121,
            "count" : 480,
            "type" : "VEC4"
        },
        {
            "bufferView" : 4,
            "componentType" : 5126,
            "count" : 480,
            "type" : "VEC4"
        },
        {
            "bufferView" : 5,
            "componentType" : 5123,
            "count" : 720,
            "type" : "SCALAR"
        },
        {
            "bufferView" : 6,
            "componentType" : 5126,
            "count" : 288,
            "max" : [
                0.0795588418841362,
                -0.014178382232785225,
                -0.12363912165164948
            ],
            "min" : [
                0.07069938629865646,
                -0.05847565084695816,
                -0.1324985772371292
            ],
            "type" : "VEC3"
        },
        {
            "bufferView" : 7,
            "componentType" : 5126,
            "count" : 288,
            "type" : "VEC3"
        },
        {
            "bufferView" : 8,
            "componentType" : 5126,
            "count" : 288,
            "type" : "VEC2"
        },
        {
            "bufferView" : 9,
            "componentType" : 5121,
            "count" : 288,
            "type" : "VEC4"
        },
        {
            "bufferView" : 10,
            "componentType" : 5126,
            "count" : 288,
            "type" : "VEC4"
        },
        {
            "bufferView" : 11,
            "componentType" : 5123,
            "count" : 432,
            "type" : "SCALAR"
        },
        {
            "bufferView" : 12,
            "componentType" : 5126,
            "count" : 8,
            "type" : "MAT4"
        }
    ],
    "bufferViews" : [
        {
            "buffer" : 0,
            "byteLength" : 5760,
            "byteOffset" : 0
        },
        {
            "buffer" : 0,
            "byteLength" : 5760,
            "byteOffset" : 5760
        },
        {
            "buffer" : 0,
            "byteLength" : 3840,
            "byteOffset" : 11520
        },
        {
            "buffer" : 0,
            "byteLength" : 1920,
            "byteOffset" : 15360
        },
        {
            "buffer" : 0,
            "byteLength" : 7680,
            "byteOffset" : 17280
        },
        {
            "buffer" : 0,
            "byteLength" : 1440,
            "byteOffset" : 24960
        },
        {
            "buffer" : 0,
            "byteLength" : 3456,
            "byteOffset" : 26400
        },
        {
            "buffer" : 0,
            "byteLength" : 3456,
            "byteOffset" : 29856
        },
        {
            "buffer" : 0,
            "byteLength" : 2304,
            "byteOffset" : 33312
        },
        {
            "buffer" : 0,
            "byteLength" : 1152,
            "byteOffset" : 35616
        },
        {
            "buffer" : 0,
            "byteLength" : 4608,
            "byteOffset" : 36768
        },
        {
            "buffer" : 0,
            "byteLength" : 864,
            "byteOffset" : 41376
        },
        {
            "buffer" : 0,
            "byteLength" : 512,
            "byteOffset" : 42240
        }
    ],
    "buffers" : [
        {
            "byteLength" : 42752,
            "uri" : "data:application/octet-stream;base64,"
        }
    ]
}
