{
  "accessors": [
    {
      "bufferView": 2,
      "componentType": 5126,
      "count": 432,
      "max": [
        1.5905830860137939,
        1.9993202686309814,
        0.26183569431304932
      ],
      "min": [
        -0.98480784893035889,
        -1,
        -2.7985961437225342
      ],
      "type": "VEC3"
    },
    {
      "bufferView": 2,
      "byteOffset": 5184,
      "componentType": 5126,
      "count": 432,
      "max": [
        0.99576425552368164,
        1,
        1
      ],
      "min": [
        -0.99576425552368164,
        -1,
        -1
      ],
      "type": "VEC3"
    },
    {
      "bufferView": 1,
      "componentType": 5126,
      "count": 432,
      "max": [
        0.56144976615905762,
        0.94618946313858032
      ],
      "min": [
        0.0061575546860694885,
        0.011806548573076725
      ],
      "type": "VEC2"
    },
    {
      "bufferView": 0,
      "componentType": 5125,
      "count": 1296,
      "max": [
        431
      ],
      "min": [
        0
      ],
      "type": "SCALAR"
    },
    {
      "bufferView": 2,
      "byteOffset": 10368,
      "componentType": 5126,
      "count": 558,
      "max": [
        3.4859147071838379,
        0.61983299255371094,
        0.6258246898651123
      ],
      "min": [
        -0.53631943464279175,
        -3.8072366714477539,
        -2.4561951160430908
      ],
      "type": "VEC3"
    },
    {
      "bufferView": 2,
      "byteOffset": 17064,
      "componentType": 5126,
      "count": 558,
      "max": [
        0.99683660268783569,
        0.99488699436187744,
        0.99724733829498291
      ],
      "min": [
        -0.99883615970611572,
        -0.99998021125793457,
        -0.99858349561691284
      ],
      "type": "VEC3"
    },
    {
      "bufferView": 1,
      "byteOffset": 3456,
      "componentType": 5126,
      "count": 558,
      "max": [
        0.91250723600387573,
        0.68405377864837646
      ],
      "min": [
        0.28795981407165527,
        0.28840827941894531
      ],
      "type": "VEC2"
    },
    {
      "bufferView": 0,
      "byteOffset": 5184,
      "componentType": 5125,
      "count": 2592,
      "max": [
        557
      ],
      "min": [
        0
      ],
      "type": "SCALAR"
    },
    {
      "bufferView": 2,
      "byteOffset": 23760,
      "componentType": 5126,
      "count": 133,
      "max": [
        5.5451536178588867,
        -1.2066061496734619,
        1.0479393005371094
      ],
      "min": [
        2.9693489074707031,
        -4.9088001251220703,
        -5.1287040710449219
      ],
      "type": "VEC3"
    },
    {
      "bufferView": 2,
      "byteOffset": 25356,
      "componentType": 5126,
      "count": 133,
      "max": [
        0.95025748014450073,
        0.98153072595596313,
        0.98585939407348633
      ],
      "min": [
        -0.93051773309707642,
        -0.98153072595596313,
        -0.7316393256187439
      ],
      "type": "VEC3"
    },
    {
      "bufferView": 1,
      "byteOffset": 7920,
      "componentType": 5126,
      "count": 133,
      "max": [
        0.99093848466873169,
        0.98542171716690063
      ],
      "min": [
        0.058100983500480652,
        0.39757823944091797
      ],
      "type": "VEC2"
    },
    {
      "bufferView": 0,
      "byteOffset": 15552,
      "componentType": 5125,
      "count": 330,
      "max": [
        132
      ],
      "min": [
        0
      ],
      "type": "SCALAR"
    },
    {
      "bufferView": 2,
      "byteOffset": 26952,
      "componentType": 5126,
      "count": 700,
      "max": [
        1.5478606224060059,
        0.53699976205825806,
        0.78109180927276611
      ],
      "min": [
        -1.0750753879547119,
        -1.9943983554840088,
        -0.10922592133283615
      ],
      "type": "VEC3"
    },
    {
      "bufferView": 2,
      "byteOffset": 35352,
      "componentType": 5126,
      "count": 700,
      "max": [
        1,
        1,
        1
      ],
      "min": [
        -1,
        -1,
        -1
      ],
      "type": "VEC3"
    },
    {
      "bufferView": 1,
      "byteOffset": 8984,
      "componentType": 5126,
      "count": 700,
      "max": [
        0.99151819944381714,
        0.97653651237487793
      ],
      "min": [
        0.0084307938814163208,
        0.013493153266608715
      ],
      "type": "VEC2"
    },
    {
      "bufferView": 0,
      "byteOffset": 16872,
      "componentType": 5125,
      "count": 1116,
      "max": [
        699
      ],
      "min": [
        0
      ],
      "type": "SCALAR"
    },
    {
      "bufferView": 2,
      "byteOffset": 43752,
      "componentType": 5126,
      "count": 116,
      "max": [
        0.98982155323028564,
        1,
        1.3729252815246582
      ],
      "min": [
        -0.98982143402099609,
        -1,
        0
      ],
      "type": "VEC3"
    },
    {
      "bufferView": 2,
      "byteOffset": 45144,
      "componentType": 5126,
      "count": 116,
      "max": [
        0.91832524538040161,
        0.92776566743850708,
        1
      ],
      "min": [
        -0.91832524538040161,
        -0.92776566743850708,
        -1
      ],
      "type": "VEC3"
    },
    {
      "bufferView": 1,
      "byteOffset": 14584,
      "componentType": 5126,
      "count": 116,
      "max": [
        0.82622015476226807,
        0.98666071891784668
      ],
      "min": [
        0.012559468857944012,
        0.012559468857944012
      ],
      "type": "VEC2"
    },
    {
      "bufferView": 0,
      "byteOffset": 21336,
      "componentType": 5125,
      "count": 396,
      "max": [
        115
      ],
      "min": [
        0
      ],
      "type": "SCALAR"
    }
  ],
  "asset": {
    "extras": {
      "author": "Vie Dinh (https://sketchfab.com/yenvydinh2295)",
      "license": "CC-BY-4.0 (http://creativecommons.org/licenses/by/4.0/)",
      "source": "https://sketchfab.com/3d-models/birthday-cake-87f446798bb544c6b0dca2504b1f9d50",
      "title": "Birthday Cake !"
    },
    "generator": "Sketchfab-9.30.0",
    "version": "2.0"
  },
  "bufferViews": [
    {
      "buffer": 0,
      "byteLength": 22920,
      "byteOffset": 0,
      "name": "floatBufferViews",
      "target": 34963
    },
    {
      "buffer": 0,
      "byteLength": 15512,
      "byteOffset": 22920,
      "byteStride": 8,
      "name": "floatBufferViews",
      "target": 34962
    },
    {
      "buffer": 0,
      "byteLength": 46536,
      "byteOffset": 38432,
      "byteStride": 12,
      "name": "floatBufferViews",
      "target": 34962
    }
  ],
  "buffers": [
    {
      "byteLength": 84968,
      "uri": "scene.bin"
    }
  ],
  "extensionsUsed": [
    "KHR_materials_unlit"
  ],
  "images": [
    {
      "uri": "textures/Chocolate_baseColor.png"
    },
    {
      "uri": "textures/Icecream2.003_baseColor.png"
    },
    {
      "uri": "textures/Material.001_baseColor.png"
    }
  ],
  "materials": [
    {
      "doubleSided": true,
      "emissiveFactor": [
        0,
        0,
        0
      ],
      "extensions": {
        "KHR_materials_unlit": {}
      },
      "name": "Chocolate",
      "pbrMetallicRoughness": {
        "baseColorFactor": [
          1,
          1,
          1,
          1
        ],
        "baseColorTexture": {
          "index": 0,
          "texCoord": 0
        },
        "metallicFactor": 0,
        "roughnessFactor": 1
      }
    },
    {
      "doubleSided": true,
      "emissiveFactor": [
        0,
        0,
        0
      ],
      "extensions": {
        "KHR_materials_unlit": {}
      },
      "name": "Icecream2.003",
      "pbrMetallicRoughness": {
        "baseColorFactor": [
          1,
          1,
          1,
          1
        ],
        "baseColorTexture": {
          "index": 1,
          "texCoord": 0
        },
        "metallicFactor": 0,
        "roughnessFactor": 1
      }
    },
    {
      "doubleSided": true,
      "emissiveFactor": [
        0,
        0,
        0
      ],
      "extensions": {
        "KHR_materials_unlit": {}
      },
      "name": "Icecream2.001",
      "pbrMetallicRoughness": {
        "baseColorFactor": [
          1,
          1,
          1,
          1
        ],
        "baseColorTexture": {
          "index": 1,
          "texCoord": 0
        },
        "metallicFactor": 0,
        "roughnessFactor": 1
      }
    },
    {
      "doubleSided": true,
      "emissiveFactor": [
        0,
        0,
        0
      ],
      "extensions": {
        "KHR_materials_unlit": {}
      },
      "name": "Material.001",
      "pbrMetallicRoughness": {
        "baseColorFactor": [
          1,
          1,
          1,
          1
        ],
        "baseColorTexture": {
          "index": 2,
          "texCoord": 0
        },
        "metallicFactor": 0,
        "roughnessFactor": 1
      }
    }
  ],
  "meshes": [
    {
      "name": "Cube.007_Chocolate_0",
      "primitives": [
        {
          "attributes": {
            "NORMAL": 1,
            "POSITION": 0,
            "TEXCOORD_0": 2
          },
          "indices": 3,
          "material": 0,
          "mode": 4
        }
      ]
    },
    {
      "name": "Plane.004_Icecream2.003_0",
      "primitives": [
        {
          "attributes": {
            "NORMAL": 5,
            "POSITION": 4,
            "TEXCOORD_0": 6
          },
          "indices": 7,
          "material": 1,
          "mode": 4
        }
      ]
    },
    {
      "name": "Plane.004_Icecream2.001_0",
      "primitives": [
        {
          "attributes": {
            "NORMAL": 9,
            "POSITION": 8,
            "TEXCOORD_0": 10
          },
          "indices": 11,
          "material": 2,
          "mode": 4
        }
      ]
    },
    {
      "name": "Cube.002_Chocolate_0",
      "primitives": [
        {
          "attributes": {
            "NORMAL": 13,
            "POSITION": 12,
            "TEXCOORD_0": 14
          },
          "indices": 15,
          "material": 0,
          "mode": 4
        }
      ]
    },
    {
      "name": "Circle_Material.001_0",
      "primitives": [
        {
          "attributes": {
            "NORMAL": 17,
            "POSITION": 16,
            "TEXCOORD_0": 18
          },
          "indices": 19,
          "material": 3,
          "mode": 4
        }
      ]
    }
  ],
  "nodes": [
    {
      "children": [
        1
      ],
      "name": "RootNode (gltf orientation matrix)",
      "rotation": [
        -0.70710678118654746,
        -0,
        -0,
        0.70710678118654757
      ]
    },
    {
      "children": [
        2
      ],
      "matrix": [
        0.9997553825378418,
        -0.022118208929896355,
        -8.5616057429391268e-16,
        0,
        0.022117963060736656,
        0.9997442364692688,
        -0.0047225248999893665,
        0,
        0.00010445379302836955,
        0.004721369594335556,
        0.999988853931427,
        0,
        -11.016048431396484,
        -5.6063838005065918,
        -18.054910659790039,
        1
      ],
      "name": "RootNode (model correction matrix)"
    },
    {
      "children": [
        3
      ],
      "matrix": [
        1,
        0,
        0,
        0,
        0,
        0,
        1,
        0,
        0,
        -1,
        0,
        0,
        0,
        0,
        0,
        1
      ],
      "name": "411606c6078b4683b58b24911d93df3f.fbx"
    },
    {
      "children": [
        4,
        6,
        9,
        11
      ],
      "name": "RootNode"
    },
    {
      "children": [
        5
      ],
      "matrix": [
        15.097971047667256,
        -15.164287462237315,
        -18.292202933946122,
        0,
        2.4989033474553284,
        22.565904333118464,
        -16.644659523043785,
        0,
        23.628708424742406,
        7.3029805417342768,
        13.448410796275754,
        0,
        12.055041313171387,
        148.37443542480469,
        29.088350296020508,
        1
      ],
      "name": "Cube.007"
    },
    {
      "mesh": 0,
      "name": "Cube.007_Chocolate_0"
    },
    {
      "children": [
        7,
        8
      ],
      "matrix": [
        -23.145306487690405,
        0.99466602052676389,
        -20.200016342298664,
        0,
        -18.039007162191556,
        -14.896218092424343,
        19.935706026555113,
        0,
        -9.1446329460090645,
        26.867238873245565,
        11.800944008458048,
        0,
        16.686256408691406,
        144.30836486816406,
        72.797508239746094,
        1
      ],
      "name": "Plane.004"
    },
    {
      "mesh": 1,
      "name": "Plane.004_Icecream2.003_0"
    },
    {
      "mesh": 2,
      "name": "Plane.004_Icecream2.001_0"
    },
    {
      "children": [
        10
      ],
      "matrix": [
        8.6573123285415345,
        -59.092713922758946,
        20.211959934654331,
        0,
        5.5187292730836557,
        -19.601570249159209,
        -59.671964027411605,
        0,
        62.209450973043559,
        9.9624708241111453,
        2.4808475612664642,
        0,
        -50.098186492919922,
        161.11286926269531,
        -10.909432411193848,
        1
      ],
      "name": "Cube.002"
    },
    {
      "mesh": 3,
      "name": "Cube.002_Chocolate_0"
    },
    {
      "children": [
        12
      ],
      "matrix": [
        100,
        0,
        0,
        0,
        0,
        -1.6292067939183141e-05,
        -99.999999999998678,
        0,
        0,
        99.999999999998678,
        -1.6292067939183141e-05,
        0,
        0,
        0,
        0,
        1
      ],
      "name": "Circle"
    },
    {
      "mesh": 4,
      "name": "Circle_Material.001_0"
    }
  ],
  "samplers": [
    {
      "magFilter": 9729,
      "minFilter": 9987,
      "wrapS": 10497,
      "wrapT": 10497
    }
  ],
  "scene": 0,
  "scenes": [
    {
      "name": "OSG_Scene",
      "nodes": [
        0
      ]
    }
  ],
  "textures": [
    {
      "sampler": 0,
      "source": 0
    },
    {
      "sampler": 0,
      "source": 1
    },
    {
      "sampler": 0,
      "source": 2
    }
  ]
}

