{
    "asset" : {
        "generator" : "Khronos glTF Blender I/O v1.4.40",
        "version" : "2.0"
    },
    "scene" : 0,
    "scenes" : [
        {
            "extras" : {
                "glTF2ExportSettings" : {
                    "export_animations" : 1,
                    "export_cameras" : 0,
                    "export_colors" : 1,
                    "export_extras" : 1,
                    "export_force_sampling" : 0,
                    "export_format" : "GLTF_EMBEDDED",
                    "export_image_format" : "AUTO",
                    "export_lights" : 0,
                    "export_morph" : 1,
                    "export_normals" : 1,
                    "export_skins" : 1,
                    "export_texcoords" : 1,
                    "export_yup" : 1,
                    "use_selection" : 1
                }
            },
            "name" : "Scene",
            "nodes" : [
                0
            ]
        }
    ],
    "nodes" : [
        {
            "extras" : {
                "sparkar_optimization" : {
                    "InvertedReducePercentage" : 0
                },
                "spark_blender_addon" : 1
            },
            "mesh" : 0,
            "name" : "Cylinder"
        }
    ],
    "materials" : [
        {
            "doubleSided" : true,
            "extras" : {},
            "name" : "Material.002",
            "pbrMetallicRoughness" : {
                "baseColorFactor" : [
                    0.06894699484109879,
                    0.06766463816165924,
                    0,
                    1
                ],
                "metallicFactor" : 0.807272732257843,
                "roughnessFactor" : 0.5
            }
        },
        {
            "doubleSided" : true,
            "extras" : {},
            "name" : "Material.001",
            "pbrMetallicRoughness" : {
                "baseColorFactor" : [
                    0.8000000715255737,
                    0.7833296656608582,
                    0,
                    1
                ],
                "metallicFactor" : 0.807272732257843,
                "roughnessFactor" : 0.5
            }
        }
    ],
    "meshes" : [
        {
            "name" : "Cylinder",
            "primitives" : [
                {
                    "attributes" : {
                        "POSITION" : 0,
                        "NORMAL" : 1,
                        "TEXCOORD_0" : 2
                    },
                    "indices" : 3,
                    "material" : 0
                },
                {
                    "attributes" : {
                        "POSITION" : 4,
                        "NORMAL" : 5,
                        "TEXCOORD_0" : 6
                    },
                    "indices" : 7,
                    "material" : 1
                }
            ]
        }
    ],
    "accessors" : [
        {
            "bufferView" : 0,
            "componentType" : 5126,
            "count" : 1052,
            "max" : [
                0.08920285850763321,
                0.3098316192626953,
                -0.016975007951259613
            ],
            "min" : [
                -0.08920285850763321,
                0.11255738139152527,
                -0.19538071751594543
            ],
            "type" : "VEC3"
        },
        {
            "bufferView" : 1,
            "componentType" : 5126,
            "count" : 1052,
            "type" : "VEC3"
        },
        {
            "bufferView" : 2,
            "componentType" : 5126,
            "count" : 1052,
            "type" : "VEC2"
        },
        {
            "bufferView" : 3,
            "componentType" : 5123,
            "count" : 3060,
            "type" : "SCALAR"
        },
        {
            "bufferView" : 4,
            "componentType" : 5126,
            "count" : 792,
            "max" : [
                0.08244571089744568,
                0.2946600317955017,
                -0.02373216301202774
            ],
            "min" : [
                -0.08244570344686508,
                0.12772896885871887,
                -0.1886235773563385
            ],
            "type" : "VEC3"
        },
        {
            "bufferView" : 5,
            "componentType" : 5126,
            "count" : 792,
            "type" : "VEC3"
        },
        {
            "bufferView" : 6,
            "componentType" : 5126,
            "count" : 792,
            "type" : "VEC2"
        },
        {
            "bufferView" : 7,
            "componentType" : 5123,
            "count" : 2304,
            "type" : "SCALAR"
        }
    ],
    "bufferViews" : [
        {
            "buffer" : 0,
            "byteLength" : 12624,
            "byteOffset" : 0
        },
        {
            "buffer" : 0,
            "byteLength" : 12624,
            "byteOffset" : 12624
        },
        {
            "buffer" : 0,
            "byteLength" : 8416,
            "byteOffset" : 25248
        },
        {
            "buffer" : 0,
            "byteLength" : 6120,
            "byteOffset" : 33664
        },
        {
            "buffer" : 0,
            "byteLength" : 9504,
            "byteOffset" : 39784
        },
        {
            "buffer" : 0,
            "byteLength" : 9504,
            "byteOffset" : 49288
        },
        {
            "buffer" : 0,
            "byteLength" : 6336,
            "byteOffset" : 58792
        },
        {
            "buffer" : 0,
            "byteLength" : 4608,
            "byteOffset" : 65128
        }
    ],
    "buffers" : [
        {
            "byteLength" : 69736,
            "uri" : "data:application/octet-stream;base64,"
        }
    ]
}
